<svg xmlns="http://www.w3.org/2000/svg" viewBox="0 0 645 92" width="631" height="90">
	<style>
		tspan { white-space:pre }
		.shp0 { fill: #ffffff } 
	</style>
	<g id="Folder 19">
		<path id="Layer" class="shp0" d="M446.2 0.6L446.2 91.4L444.6 91.4L444.6 0.6L446.2 0.6L446.2 0.6Z" />
		<path id="Layer" class="shp0" d="M469.3 22.8L495.8 22.8L495.8 25.3L472.2 25.3L472.2 44.1L493.2 44.1L493.2 46.6L472.2 46.6L472.2 69.7L469.3 69.7L469.3 22.8Z" />
		<path id="Layer" class="shp0" d="M503.1 22.8L506 22.8L506 69.8L503.1 69.8L503.1 22.8Z" />
		<path id="Layer" class="shp0" d="M514.3 22.8L517.2 22.8L517.2 67.3L540.9 67.3L540.9 69.8L514.3 69.8L514.3 22.8L514.3 22.8Z" />
		<path id="Layer" class="shp0" d="M547.2 22.8L551.3 22.8L569.6 66.5L569.7 66.5L587.9 22.8L592 22.8L592 69.8L589.1 69.8L589.1 26.4L589 26.4L571.1 69.8L568.2 69.8L550.1 26.4L550 26.4L550 69.8L547.1 69.8L547.1 22.8L547.2 22.8Z" />
		<path id="Layer" class="shp0" d="M631 36.3C630.9 34.3 630.5 32.5 629.7 31C628.9 29.5 627.9 28.3 626.6 27.3C625.3 26.3 623.7 25.5 621.9 25C620.1 24.5 618.1 24.2 615.9 24.2C614.6 24.2 613.2 24.4 611.7 24.7C610.2 25 608.8 25.5 607.5 26.3C606.2 27.1 605.1 28.1 604.3 29.4C603.5 30.7 603.1 32.3 603.1 34.2C603.1 36.1 603.6 37.6 604.5 38.8C605.4 40 606.6 40.9 608.1 41.7C609.6 42.4 611.3 43 613.2 43.4C615.1 43.8 617.1 44.3 619.1 44.6C621.1 45 623.1 45.5 625 46C626.9 46.5 628.6 47.3 630.1 48.2C631.6 49.1 632.8 50.4 633.7 51.9C634.6 53.4 635.1 55.3 635.1 57.6C635.1 60.1 634.6 62.1 633.5 63.8C632.4 65.5 631.1 66.8 629.5 67.9C627.9 69 626.1 69.7 624.2 70.2C622.2 70.7 620.4 70.9 618.6 70.9C615.8 70.9 613.3 70.6 610.8 70C608.4 69.4 606.3 68.4 604.5 67.1C602.7 65.8 601.3 64 600.3 61.9C599.3 59.8 598.8 57.2 598.8 54.2L601.7 54.2C601.6 56.8 601.9 59 602.8 60.7C603.7 62.5 604.9 63.9 606.4 65.1C608 66.2 609.8 67.1 611.9 67.6C614 68.1 616.2 68.4 618.5 68.4C619.9 68.4 621.4 68.2 623 67.9C624.6 67.5 626.1 67 627.4 66.1C628.7 65.3 629.9 64.2 630.8 62.8C631.7 61.4 632.1 59.7 632.1 57.7C632.1 55.7 631.6 54.1 630.7 52.9C629.8 51.6 628.6 50.6 627.1 49.9C625.6 49.1 623.9 48.5 622 48.1C620.1 47.6 618.1 47.2 616.1 46.8C614.1 46.4 612.2 45.9 610.2 45.4C608.3 44.9 606.6 44.2 605.1 43.3C603.6 42.4 602.4 41.2 601.5 39.8C600.6 38.4 600.1 36.5 600.1 34.3C600.1 32.1 600.6 30.1 601.5 28.5C602.4 26.9 603.7 25.6 605.2 24.6C606.7 23.6 608.4 22.9 610.3 22.4C612.2 21.9 614 21.7 615.9 21.7C618.4 21.7 620.6 22 622.8 22.5C624.9 23 626.8 23.9 628.4 25.1C630 26.3 631.3 27.8 632.2 29.6C633.2 31.4 633.7 33.7 633.8 36.2L631 36.3L631 36.3Z" />
		<path id="Layer" class="shp0" d="M226.7 21.4C223.6 21.4 220.6 22.2 217.9 23.7C215.5 25 213.7 26.9 212.3 29.4C211.3 26.9 209.8 25 207.6 23.7C205.1 22.2 202.2 21.4 199.1 21.4C195.3 21.4 192.1 22.2 189.6 23.9C187.6 25.3 185.8 27.1 184.4 29.3L184.4 22.8L178.1 22.8L178.1 69.7L184.9 69.7L184.9 43.6C184.9 41.2 185.2 39 185.7 37.1C186.2 35.1 187 33.4 188 32C189 30.6 190.4 29.4 192 28.6C193.7 27.8 195.6 27.4 197.9 27.4C199.6 27.4 201 27.7 202.2 28.2C203.3 28.7 204.3 29.5 204.9 30.4C205.6 31.4 206.1 32.5 206.4 33.8C206.7 35.1 206.9 36.6 206.9 38.1L206.9 69.7L213.7 69.7L213.7 43.2C213.7 41.1 213.9 39.1 214.3 37.2C214.7 35.3 215.3 33.6 216.2 32.1C217.1 30.7 218.3 29.5 219.8 28.6C221.3 27.7 223.2 27.3 225.5 27.3C229.3 27.3 232 28.2 233.5 30C235 31.9 235.8 34.6 235.8 38.3L235.8 69.6L242.6 69.6L242.6 38C242.4 27 237.1 21.4 226.7 21.4Z" />
		<path id="Layer" class="shp0" d="M288.1 28.6L296.1 28.6L296.1 59.3C296 63.4 296.8 66.2 298.4 67.7C300 69.3 302.7 70 306.6 70C307.4 70 308.3 70 309.1 69.9C309.9 69.8 310.7 69.8 311.5 69.8L312.1 69.8L312.1 63.9L311.4 64C309.8 64.2 308.2 64.3 306.7 64.3C304.9 64.2 303.8 63.7 303.4 62.9C302.9 62 302.7 60.6 302.7 58.9L302.7 28.7L312 28.7L312 22.8L288 22.8L288 28.6L288.1 28.6L288.1 28.6Z" />
		<path id="Layer" class="shp0" d="M317.4 22.7L324.2 22.7L324.2 69.6L317.4 69.6L317.4 22.7Z" />
		<path id="Layer" class="shp0" d="M420.5 32.1C419.9 29.8 419 27.9 417.6 26.3C416.2 24.7 414.4 23.5 412.2 22.6C410 21.8 407.2 21.3 404 21.3C400.7 21.3 397.5 22.2 394.7 23.9C392.6 25.2 390.9 26.9 389.8 28.9L389.8 22.6L383 22.6L383 69.5L389.8 69.5L389.8 42.3C389.9 40.1 390.2 38.1 390.9 36.2C391.5 34.4 392.5 32.8 393.6 31.4C394.8 30.1 396.2 29 397.8 28.3C399.5 27.5 401.4 27.2 403.5 27.2C405.6 27.2 407.5 27.5 408.9 28.2C410.3 28.9 411.4 29.8 412.3 30.9C413.1 32.1 413.7 33.5 414.1 35.1C414.4 36.7 414.6 38.5 414.6 40.4L414.6 69.5L421.4 69.5L421.4 39.5C421.3 36.9 421 34.3 420.5 32.1Z" />
		<path id="Layer" fill-rule="evenodd" class="shp0" d="M377.8 45.4C377.8 58.8 367 69.6 353.6 69.6C340.2 69.6 329.4 58.8 329.4 45.4C329.4 32 340.2 21.2 353.6 21.2C366.9 21.2 377.7 32.1 377.8 45.4ZM362.8 53.6L344.3 53.6C344.3 53.6 345.2 60.2 353.6 60.2C362 60.2 362.9 53.6 362.8 53.6Z" />
		<path id="Layer" fill-rule="evenodd" class="shp0" d="M289.3 63.1L290.1 62.7L290.1 68.8L289.6 68.9C288.9 69 288.3 69.1 287.8 69.2C287.2 69.3 286.6 69.3 285.8 69.3C284.3 69.3 283 69.1 282.1 68.7C281.2 68.3 280.4 67.7 279.9 66.9C279.4 66.1 279.1 65.2 278.9 64.1C278.8 63.5 278.7 62.9 278.7 62.3C278 63.3 277.3 64.3 276.5 65.1C275.4 66.3 274.2 67.3 272.9 68.1C271.6 68.9 270.1 69.5 268.4 69.9C266.8 70.3 264.8 70.5 262.5 70.5C260.4 70.5 258.3 70.2 256.4 69.7C254.5 69.2 252.7 68.3 251.3 67.2C249.9 66 248.7 64.6 247.9 62.8C247 61.1 246.6 59 246.6 56.6C246.6 53.3 247.4 50.7 248.9 48.8C250.4 46.9 252.4 45.5 254.8 44.5C257.1 43.6 259.8 42.9 262.8 42.5C265.7 42.1 268.7 41.7 271.7 41.4C272.9 41.3 273.9 41.2 274.8 41C275.6 40.9 276.3 40.6 276.8 40.2C277.3 39.8 277.7 39.3 278 38.6C278.3 37.9 278.4 37 278.4 35.8C278.4 34 278.1 32.5 277.5 31.4C276.9 30.2 276.1 29.3 275.1 28.7C274.1 28 272.9 27.6 271.5 27.3C270.1 27 268.6 26.9 267 26.9C263.6 26.9 260.8 27.7 258.7 29.3C256.6 30.9 255.5 33.5 255.4 37L255.4 37.6L248.6 37.6L248.6 37C248.7 34.3 249.3 31.9 250.3 29.9C251.3 27.9 252.6 26.2 254.3 24.9C256 23.7 258 22.7 260.2 22.1C262.4 21.5 264.9 21.2 267.6 21.2C269.6 21.2 271.7 21.4 273.7 21.8C275.8 22.2 277.7 23 279.3 24.1C281 25.2 282.4 26.8 283.4 28.8C284.5 30.8 285 33.4 285 36.6L285 60.9C285 62.8 285.8 63.7 287.7 63.7C288.3 63.7 288.8 63.6 289.3 63.1ZM276.9 46C275.9 46.3 275 46.5 274.2 46.6C271.9 47 269.4 47.4 266.9 47.7C264.4 48 262.1 48.5 260.1 49.1C258.1 49.8 256.5 50.7 255.2 51.8C254 52.9 253.4 54.4 253.4 56.5C253.4 57.8 253.7 59 254.2 60C254.7 61.1 255.4 62 256.3 62.7C257.2 63.4 258.2 64 259.4 64.4C260.6 64.8 261.8 65 263 65C265 65 267 64.7 268.9 64.1C270.8 63.5 272.4 62.6 273.8 61.4C275.2 60.2 276.3 58.8 277.1 57.1C277.9 55.4 278.3 53.4 278.3 51.3L278.3 45.3C277.9 45.6 277.4 45.8 276.9 46Z" />
	</g>
	<g id="Layer">
		<path id="Layer" class="shp0" d="M121.1 26.3C119.7 24.7 117.9 23.5 115.7 22.6C113.5 21.8 110.7 21.3 107.5 21.3C104.2 21.3 101 22.2 98.2 23.9C96.1 25.2 94.4 26.9 93.3 28.9L93.3 22.6L86.5 22.6L86.5 69.5L93.3 69.5L93.3 42.3C93.4 40.1 93.7 38.1 94.4 36.2C95 34.4 96 32.8 97.1 31.4C98.3 30.1 99.7 29 101.3 28.3C103 27.5 104.9 27.2 107 27.2C109.1 27.2 111 27.5 112.4 28.2C113.8 28.9 114.9 29.8 115.8 30.9C116.6 32.1 117.2 33.5 117.6 35.1C117.9 36.7 118.1 38.5 118.1 40.4L118.1 69.5L124.9 69.5L124.9 39.5C124.9 36.7 124.6 34.2 124.1 32C123.4 29.8 122.5 27.9 121.1 26.3Z" />
		<path id="new A" fill-rule="evenodd" class="shp0" d="M172.3 63.1L173.1 62.7L173.1 68.8L172.6 68.9C171.9 69 171.3 69.1 170.8 69.2C170.2 69.3 169.6 69.3 168.8 69.3C167.3 69.3 166 69.1 165.1 68.7C164.2 68.3 163.4 67.7 162.9 66.9C162.4 66.1 162.1 65.2 161.9 64.1C161.8 63.5 161.7 62.9 161.7 62.3C161 63.3 160.3 64.3 159.5 65.1C158.4 66.3 157.2 67.3 155.9 68.1C154.6 68.9 153.1 69.5 151.4 69.9C149.8 70.3 147.8 70.5 145.5 70.5C143.4 70.5 141.3 70.2 139.4 69.7C137.5 69.2 135.7 68.3 134.3 67.2C132.9 66 131.7 64.6 130.9 62.8C130 61.1 129.6 59 129.6 56.6C129.6 53.3 130.4 50.7 131.9 48.8C133.4 46.9 135.4 45.5 137.8 44.5C140.1 43.6 142.8 42.9 145.8 42.5C148.7 42.1 151.7 41.7 154.7 41.4C155.9 41.3 156.9 41.2 157.8 41C158.6 40.9 159.3 40.6 159.8 40.2C160.3 39.8 160.7 39.3 161 38.6C161.3 37.9 161.4 37 161.4 35.8C161.4 34 161.1 32.5 160.5 31.4C159.9 30.2 159.1 29.3 158.1 28.7C157.1 28 155.9 27.6 154.5 27.3C153.1 27 151.6 26.9 150 26.9C146.6 26.9 143.8 27.7 141.7 29.3C139.6 30.9 138.5 33.5 138.4 37L138.4 37.6L131.6 37.6L131.6 37C131.7 34.3 132.3 31.9 133.3 29.9C134.3 27.9 135.6 26.2 137.3 24.9C139 23.7 141 22.7 143.2 22.1C145.4 21.5 147.9 21.2 150.6 21.2C152.6 21.2 154.7 21.4 156.7 21.8C158.8 22.2 160.7 23 162.3 24.1C164 25.2 165.4 26.8 166.4 28.8C167.5 30.8 168 33.4 168 36.6L168 60.9C168 62.8 168.8 63.7 170.7 63.7C171.3 63.7 171.8 63.6 172.3 63.1ZM159.9 46C158.9 46.3 158 46.5 157.2 46.6C154.9 47 152.4 47.4 149.9 47.7C147.4 48 145.1 48.5 143.1 49.1C141.1 49.8 139.5 50.7 138.2 51.8C137 52.9 136.4 54.4 136.4 56.5C136.4 57.8 136.7 59 137.2 60C137.7 61.1 138.4 62 139.3 62.7C140.2 63.4 141.2 64 142.4 64.4C143.6 64.8 144.8 65 146 65C148 65 150 64.7 151.9 64.1C153.8 63.5 155.4 62.6 156.8 61.4C158.2 60.2 159.3 58.8 160.1 57.1C160.9 55.4 161.3 53.4 161.3 51.3L161.3 45.3C160.9 45.6 160.4 45.8 159.9 46Z" />
		<path id="Layer" class="shp0" d="M31.8 21.3C24.7 21.3 12.7 23.6 12.7 38.7L12.7 69.6L19.6 69.6L19.6 50.3L35.2 50.3L35.2 43.9L19.5 43.9L19.5 38.6L19.5 38.6C19.5 38.6 19.2 34.6 22.1 31.5C24.4 29.1 27.9 27.8 32.7 27.8C34.3 27.8 36 27.9 37.8 28.2L38.5 28.3L38.5 21.9L38 21.8C37.9 21.8 35.3 21.3 31.8 21.3Z" />
		<path id="Layer" class="shp0" d="M81.3 22.6L74.4 22.6L74.4 52.6C74.4 64.5 63.4 65 62.1 65C62 65 49.5 64.4 49.5 52.6L49.5 22.6L42.9 22.6L42.9 50.5C42.9 51.1 42.4 59.4 47.8 65.3C51 68.8 55.5 70.6 61.3 70.8L61.3 70.8L62.2 70.8L62.5 70.8L63.1 70.8L63.1 70.8C68.9 70.6 73.5 68.7 76.7 65.2C81.9 59.4 81.5 51.4 81.4 50.8L81.3 22.6L81.3 22.6Z" />
	</g>
</svg>